2018-11-12 23:41:41,775 - avconv_controller.py - DEBUG - results b"ffprobe version 3.2.10-1~deb9u1+rpt1 Copyright (c) 2007-2018 the FFmpeg developers\n  built with gcc 6.3.0 (Raspbian 6.3.0-18+rpi1) 20170516\n  configuration: --prefix=/usr --extra-version='1~deb9u1+rpt1' --toolchain=hardened --libdir=/usr/lib/arm-linux-gnueabihf --incdir=/usr/include/arm-linux-gnueabihf --enable-gpl --disable-stripping --enable-avresample --enable-avisynth --enable-gnutls --enable-ladspa --enable-libass --enable-libbluray --enable-libbs2b --enable-libcaca --enable-libcdio --enable-libebur128 --enable-libflite --enable-libfontconfig --enable-libfreetype --enable-libfribidi --enable-libgme --enable-libgsm --enable-libmp3lame --enable-libopenjpeg --enable-libopenmpt --enable-libopus --enable-libpulse --enable-librubberband --enable-libshine --enable-libsnappy --enable-libsoxr --enable-libspeex --enable-libssh --enable-libtheora --enable-libtwolame --enable-libvorbis --enable-libvpx --enable-libwavpack --enable-libwebp --enable-libx265 --enable-libxvid --enable-libzmq --enable-libzvbi --enable-omx-rpi --enable-mmal --enable-openal --enable-opengl --enable-sdl2 --enable-libdc1394 --enable-libiec61883 --enable-chromaprint --enable-frei0r --enable-libopencv --enable-libx264 --enable-shared\n  libavutil      55. 34.101 / 55. 34.101\n  libavcodec     57. 64.101 / 57. 64.101\n  libavformat    57. 56.101 / 57. 56.101\n  libavdevice    57.  1.100 / 57.  1.100\n  libavfilter     6. 65.100 /  6. 65.100\n  libavresample   3.  1.  0 /  3.  1.  0\n  libswscale      4.  2.100 /  4.  2.100\n  libswresample   2.  3.100 /  2.  3.100\n  libpostproc    54.  1.100 / 54.  1.100\n[avi @ 0x957e50] Format avi detected only with low score of 1, misdetection possible!\ntests/m1/the_taking_of_pelham_one_two_three.avi: Invalid data found when processing input\n"
2018-11-12 23:41:41,912 - avconv_controller.py - ERROR - duration 'tests/m1/the_taking_of_pelham_one_two_three.avi': 'NoneType' object has no attribute 'group'
2018-11-12 23:41:41,992 - librarian.py - INFO - title card <Surface(182x268x24 SW)>
2018-11-12 23:41:41,996 - librarian.py - DEBUG - name read, The Taking of Pelham One Two Three (1974) for tests/m1/the_taking_of_pelham_one_two_three.avi
2018-11-12 23:41:41,999 - librarian.py - DEBUG - description read, In New York, armed men hijack a subway car and demand a ransom for the passengers. Even if it's paid, how could they get away? for tests/m1/the_taking_of_pelham_one_two_three.avi
2018-11-12 23:41:42,001 - librarian.py - INFO - generating thumbnails
2018-11-12 23:41:42,002 - librarian.py - INFO - ran thumbnail conversion
2018-11-12 23:41:43,888 - avconv_controller.py - DEBUG - results b"ffprobe version 3.2.10-1~deb9u1+rpt1 Copyright (c) 2007-2018 the FFmpeg developers\n  built with gcc 6.3.0 (Raspbian 6.3.0-18+rpi1) 20170516\n  configuration: --prefix=/usr --extra-version='1~deb9u1+rpt1' --toolchain=hardened --libdir=/usr/lib/arm-linux-gnueabihf --incdir=/usr/include/arm-linux-gnueabihf --enable-gpl --disable-stripping --enable-avresample --enable-avisynth --enable-gnutls --enable-ladspa --enable-libass --enable-libbluray --enable-libbs2b --enable-libcaca --enable-libcdio --enable-libebur128 --enable-libflite --enable-libfontconfig --enable-libfreetype --enable-libfribidi --enable-libgme --enable-libgsm --enable-libmp3lame --enable-libopenjpeg --enable-libopenmpt --enable-libopus --enable-libpulse --enable-librubberband --enable-libshine --enable-libsnappy --enable-libsoxr --enable-libspeex --enable-libssh --enable-libtheora --enable-libtwolame --enable-libvorbis --enable-libvpx --enable-libwavpack --enable-libwebp --enable-libx265 --enable-libxvid --enable-libzmq --enable-libzvbi --enable-omx-rpi --enable-mmal --enable-openal --enable-opengl --enable-sdl2 --enable-libdc1394 --enable-libiec61883 --enable-chromaprint --enable-frei0r --enable-libopencv --enable-libx264 --enable-shared\n  libavutil      55. 34.101 / 55. 34.101\n  libavcodec     57. 64.101 / 57. 64.101\n  libavformat    57. 56.101 / 57. 56.101\n  libavdevice    57.  1.100 / 57.  1.100\n  libavfilter     6. 65.100 /  6. 65.100\n  libavresample   3.  1.  0 /  3.  1.  0\n  libswscale      4.  2.100 /  4.  2.100\n  libswresample   2.  3.100 /  2.  3.100\n  libpostproc    54.  1.100 / 54.  1.100\n[avi @ 0x84be50] Format avi detected only with low score of 1, misdetection possible!\ntests/m1/hello2.avi: Invalid data found when processing input\n"
2018-11-12 23:41:43,897 - avconv_controller.py - ERROR - duration 'tests/m1/hello2.avi': 'NoneType' object has no attribute 'group'
2018-11-12 23:41:43,921 - librarian.py - WARNING - no title found
2018-11-12 23:41:43,923 - librarian.py - WARNING - no name found
2018-11-12 23:41:43,925 - librarian.py - WARNING - no description found
2018-11-12 23:41:43,926 - librarian.py - INFO - generating thumbnails
2018-11-12 23:41:43,927 - librarian.py - INFO - ran thumbnail conversion
2018-11-12 23:41:43,937 - librarian.py - INFO - calling imdb for hello 2 avi
2018-11-12 23:41:46,731 - librarian.py - ERROR - imdb image/title/descr results list index out of range
2018-11-12 23:41:46,738 - librarian.py - INFO - checking /home/pi
2018-11-12 23:41:46,739 - librarian.py - INFO - checking for mp4 in /home/pi
2018-11-12 23:41:50,415 - avconv_controller.py - DEBUG - results b"ffprobe version 3.2.10-1~deb9u1+rpt1 Copyright (c) 2007-2018 the FFmpeg developers\n  built with gcc 6.3.0 (Raspbian 6.3.0-18+rpi1) 20170516\n  configuration: --prefix=/usr --extra-version='1~deb9u1+rpt1' --toolchain=hardened --libdir=/usr/lib/arm-linux-gnueabihf --incdir=/usr/include/arm-linux-gnueabihf --enable-gpl --disable-stripping --enable-avresample --enable-avisynth --enable-gnutls --enable-ladspa --enable-libass --enable-libbluray --enable-libbs2b --enable-libcaca --enable-libcdio --enable-libebur128 --enable-libflite --enable-libfontconfig --enable-libfreetype --enable-libfribidi --enable-libgme --enable-libgsm --enable-libmp3lame --enable-libopenjpeg --enable-libopenmpt --enable-libopus --enable-libpulse --enable-librubberband --enable-libshine --enable-libsnappy --enable-libsoxr --enable-libspeex --enable-libssh --enable-libtheora --enable-libtwolame --enable-libvorbis --enable-libvpx --enable-libwavpack --enable-libwebp --enable-libx265 --enable-libxvid --enable-libzmq --enable-libzvbi --enable-omx-rpi --enable-mmal --enable-openal --enable-opengl --enable-sdl2 --enable-libdc1394 --enable-libiec61883 --enable-chromaprint --enable-frei0r --enable-libopencv --enable-libx264 --enable-shared\n  libavutil      55. 34.101 / 55. 34.101\n  libavcodec     57. 64.101 / 57. 64.101\n  libavformat    57. 56.101 / 57. 56.101\n  libavdevice    57.  1.100 / 57.  1.100\n  libavfilter     6. 65.100 /  6. 65.100\n  libavresample   3.  1.  0 /  3.  1.  0\n  libswscale      4.  2.100 /  4.  2.100\n  libswresample   2.  3.100 /  2.  3.100\n  libpostproc    54.  1.100 / 54.  1.100\nInput #0, mov,mp4,m4a,3gp,3g2,mj2, from '/home/pi/BringingUpBaby(1938).mp4':\n  Metadata:\n    major_brand     : isom\n    minor_version   : 512\n    compatible_brands: isomiso2avc1mp41\n    title           : Bringing Up Baby ( 1938) - https://archive.org/details/BringingUpBaby\n    encoder         : Lavf57.21.101\n  Duration: 01:37:54.00, start: 0.000000, bitrate: 830 kb/s\n    Stream #0:0(und): Video: h264 (Constrained Baseline) (avc1 / 0x31637661), yuv420p, 640x480 [SAR 123:124 DAR 41:31], 697 kb/s, 25 fps, 25 tbr, 12800 tbn, 50 tbc (default)\n    Metadata:\n      handler_name    : VideoHandler\n    Stream #0:1(und): Audio: aac (LC) (mp4a / 0x6134706D), 44100 Hz, stereo, fltp, 128 kb/s (default)\n    Metadata:\n      handler_name    : SoundHandler\n"
2018-11-12 23:41:50,480 - avconv_controller.py - ERROR - duration '/home/pi/BringingUpBaby(1938).mp4': could not convert string to float: 'Duration'
2018-11-12 23:41:50,522 - librarian.py - WARNING - no title found
2018-11-12 23:41:50,523 - librarian.py - WARNING - no name found
2018-11-12 23:41:50,525 - librarian.py - WARNING - no description found
2018-11-12 23:41:50,526 - librarian.py - INFO - generating thumbnails
2018-11-12 23:41:50,528 - librarian.py - INFO - ran thumbnail conversion
2018-11-12 23:41:50,530 - librarian.py - INFO - calling imdb for Bringing Up Baby( 1938) mp 4
2018-11-12 23:41:54,890 - librarian.py - ERROR - imdb image/title/descr results list index out of range
2018-11-12 23:43:13,483 - video_player_pi2.py - INFO - hello
2018-11-12 23:43:14,890 - avconv_controller.py - INFO - importing avconv/ffmpeg controller
2018-11-12 23:43:16,292 - video_player_pi2.py - DEBUG - loading from config.file.txt
2018-11-12 23:43:16,294 - librarian.py - INFO - checking tests/m1
2018-11-12 23:43:16,295 - librarian.py - INFO - checking for mp4 in tests/m1
2018-11-12 23:43:18,653 - avconv_controller.py - DEBUG - results b"ffprobe version 3.2.10-1~deb9u1+rpt1 Copyright (c) 2007-2018 the FFmpeg developers\n  built with gcc 6.3.0 (Raspbian 6.3.0-18+rpi1) 20170516\n  configuration: --prefix=/usr --extra-version='1~deb9u1+rpt1' --toolchain=hardened --libdir=/usr/lib/arm-linux-gnueabihf --incdir=/usr/include/arm-linux-gnueabihf --enable-gpl --disable-stripping --enable-avresample --enable-avisynth --enable-gnutls --enable-ladspa --enable-libass --enable-libbluray --enable-libbs2b --enable-libcaca --enable-libcdio --enable-libebur128 --enable-libflite --enable-libfontconfig --enable-libfreetype --enable-libfribidi --enable-libgme --enable-libgsm --enable-libmp3lame --enable-libopenjpeg --enable-libopenmpt --enable-libopus --enable-libpulse --enable-librubberband --enable-libshine --enable-libsnappy --enable-libsoxr --enable-libspeex --enable-libssh --enable-libtheora --enable-libtwolame --enable-libvorbis --enable-libvpx --enable-libwavpack --enable-libwebp --enable-libx265 --enable-libxvid --enable-libzmq --enable-libzvbi --enable-omx-rpi --enable-mmal --enable-openal --enable-opengl --enable-sdl2 --enable-libdc1394 --enable-libiec61883 --enable-chromaprint --enable-frei0r --enable-libopencv --enable-libx264 --enable-shared\n  libavutil      55. 34.101 / 55. 34.101\n  libavcodec     57. 64.101 / 57. 64.101\n  libavformat    57. 56.101 / 57. 56.101\n  libavdevice    57.  1.100 / 57.  1.100\n  libavfilter     6. 65.100 /  6. 65.100\n  libavresample   3.  1.  0 /  3.  1.  0\n  libswscale      4.  2.100 /  4.  2.100\n  libswresample   2.  3.100 /  2.  3.100\n  libpostproc    54.  1.100 / 54.  1.100\n[mov,mp4,m4a,3gp,3g2,mj2 @ 0x13dfe50] Format mov,mp4,m4a,3gp,3g2,mj2 detected only with low score of 1, misdetection possible!\n[mov,mp4,m4a,3gp,3g2,mj2 @ 0x13dfe50] moov atom not found\ntests/m1/hello.mp4: Invalid data found when processing input\n"
2018-11-12 23:43:18,741 - avconv_controller.py - ERROR - duration 'tests/m1/hello.mp4': 'NoneType' object has no attribute 'group'
2018-11-12 23:43:18,811 - librarian.py - INFO - title card <Surface(182x268x24 SW)>
2018-11-12 23:43:18,815 - librarian.py - DEBUG - name read, Hello, My Name Is Doris (2015) for tests/m1/hello.mp4
2018-11-12 23:43:18,824 - librarian.py - DEBUG - description read, A self-help seminar inspires a sixty-something woman to romantically pursue her younger co-worker. for tests/m1/hello.mp4
2018-11-12 23:43:18,828 - librarian.py - INFO - generating thumbnails
2018-11-12 23:43:18,830 - librarian.py - INFO - ran thumbnail conversion
2018-11-12 23:43:18,831 - librarian.py - INFO - checking for avi in tests/m1
2018-11-12 23:43:19,930 - avconv_controller.py - DEBUG - results b"ffprobe version 3.2.10-1~deb9u1+rpt1 Copyright (c) 2007-2018 the FFmpeg developers\n  built with gcc 6.3.0 (Raspbian 6.3.0-18+rpi1) 20170516\n  configuration: --prefix=/usr --extra-version='1~deb9u1+rpt1' --toolchain=hardened --libdir=/usr/lib/arm-linux-gnueabihf --incdir=/usr/include/arm-linux-gnueabihf --enable-gpl --disable-stripping --enable-avresample --enable-avisynth --enable-gnutls --enable-ladspa --enable-libass --enable-libbluray --enable-libbs2b --enable-libcaca --enable-libcdio --enable-libebur128 --enable-libflite --enable-libfontconfig --enable-libfreetype --enable-libfribidi --enable-libgme --enable-libgsm --enable-libmp3lame --enable-libopenjpeg --enable-libopenmpt --enable-libopus --enable-libpulse --enable-librubberband --enable-libshine --enable-libsnappy --enable-libsoxr --enable-libspeex --enable-libssh --enable-libtheora --enable-libtwolame --enable-libvorbis --enable-libvpx --enable-libwavpack --enable-libwebp --enable-libx265 --enable-libxvid --enable-libzmq --enable-libzvbi --enable-omx-rpi --enable-mmal --enable-openal --enable-opengl --enable-sdl2 --enable-libdc1394 --enable-libiec61883 --enable-chromaprint --enable-frei0r --enable-libopencv --enable-libx264 --enable-shared\n  libavutil      55. 34.101 / 55. 34.101\n  libavcodec     57. 64.101 / 57. 64.101\n  libavformat    57. 56.101 / 57. 56.101\n  libavdevice    57.  1.100 / 57.  1.100\n  libavfilter     6. 65.100 /  6. 65.100\n  libavresample   3.  1.  0 /  3.  1.  0\n  libswscale      4.  2.100 /  4.  2.100\n  libswresample   2.  3.100 /  2.  3.100\n  libpostproc    54.  1.100 / 54.  1.100\n[avi @ 0xd61e50] Format avi detected only with low score of 1, misdetection possible!\ntests/m1/the_taking_of_pelham_one_two_three.avi: Invalid data found when processing input\n"
2018-11-12 23:43:19,933 - avconv_controller.py - ERROR - duration 'tests/m1/the_taking_of_pelham_one_two_three.avi': 'NoneType' object has no attribute 'group'
2018-11-12 23:43:19,951 - librarian.py - INFO - title card <Surface(182x268x24 SW)>
2018-11-12 23:43:19,957 - librarian.py - DEBUG - name read, The Taking of Pelham One Two Three (1974) for tests/m1/the_taking_of_pelham_one_two_three.avi
2018-11-12 23:43:19,960 - librarian.py - DEBUG - description read, In New York, armed men hijack a subway car and demand a ransom for the passengers. Even if it's paid, how could they get away? for tests/m1/the_taking_of_pelham_one_two_three.avi
2018-11-12 23:43:19,962 - librarian.py - INFO - generating thumbnails
2018-11-12 23:43:19,964 - librarian.py - INFO - ran thumbnail conversion
2018-11-12 23:43:20,431 - avconv_controller.py - DEBUG - results b"ffprobe version 3.2.10-1~deb9u1+rpt1 Copyright (c) 2007-2018 the FFmpeg developers\n  built with gcc 6.3.0 (Raspbian 6.3.0-18+rpi1) 20170516\n  configuration: --prefix=/usr --extra-version='1~deb9u1+rpt1' --toolchain=hardened --libdir=/usr/lib/arm-linux-gnueabihf --incdir=/usr/include/arm-linux-gnueabihf --enable-gpl --disable-stripping --enable-avresample --enable-avisynth --enable-gnutls --enable-ladspa --enable-libass --enable-libbluray --enable-libbs2b --enable-libcaca --enable-libcdio --enable-libebur128 --enable-libflite --enable-libfontconfig --enable-libfreetype --enable-libfribidi --enable-libgme --enable-libgsm --enable-libmp3lame --enable-libopenjpeg --enable-libopenmpt --enable-libopus --enable-libpulse --enable-librubberband --enable-libshine --enable-libsnappy --enable-libsoxr --enable-libspeex --enable-libssh --enable-libtheora --enable-libtwolame --enable-libvorbis --enable-libvpx --enable-libwavpack --enable-libwebp --enable-libx265 --enable-libxvid --enable-libzmq --enable-libzvbi --enable-omx-rpi --enable-mmal --enable-openal --enable-opengl --enable-sdl2 --enable-libdc1394 --enable-libiec61883 --enable-chromaprint --enable-frei0r --enable-libopencv --enable-libx264 --enable-shared\n  libavutil      55. 34.101 / 55. 34.101\n  libavcodec     57. 64.101 / 57. 64.101\n  libavformat    57. 56.101 / 57. 56.101\n  libavdevice    57.  1.100 / 57.  1.100\n  libavfilter     6. 65.100 /  6. 65.100\n  libavresample   3.  1.  0 /  3.  1.  0\n  libswscale      4.  2.100 /  4.  2.100\n  libswresample   2.  3.100 /  2.  3.100\n  libpostproc    54.  1.100 / 54.  1.100\n[avi @ 0x71be50] Format avi detected only with low score of 1, misdetection possible!\ntests/m1/hello2.avi: Invalid data found when processing input\n"
2018-11-12 23:43:20,433 - avconv_controller.py - ERROR - duration 'tests/m1/hello2.avi': 'NoneType' object has no attribute 'group'
2018-11-12 23:43:20,437 - librarian.py - WARNING - no title found
2018-11-12 23:43:20,438 - librarian.py - WARNING - no name found
2018-11-12 23:43:20,439 - librarian.py - WARNING - no description found
2018-11-12 23:43:20,439 - librarian.py - INFO - generating thumbnails
2018-11-12 23:43:20,440 - librarian.py - INFO - ran thumbnail conversion
2018-11-12 23:43:20,443 - librarian.py - INFO - calling imdb for hello 2 avi
2018-11-12 23:43:22,940 - librarian.py - ERROR - imdb image/title/descr results list index out of range
2018-11-12 23:43:22,941 - librarian.py - INFO - checking /home/pi
2018-11-12 23:43:22,942 - librarian.py - INFO - checking for mp4 in /home/pi
2018-11-12 23:43:25,075 - avconv_controller.py - DEBUG - results b"ffprobe version 3.2.10-1~deb9u1+rpt1 Copyright (c) 2007-2018 the FFmpeg developers\n  built with gcc 6.3.0 (Raspbian 6.3.0-18+rpi1) 20170516\n  configuration: --prefix=/usr --extra-version='1~deb9u1+rpt1' --toolchain=hardened --libdir=/usr/lib/arm-linux-gnueabihf --incdir=/usr/include/arm-linux-gnueabihf --enable-gpl --disable-stripping --enable-avresample --enable-avisynth --enable-gnutls --enable-ladspa --enable-libass --enable-libbluray --enable-libbs2b --enable-libcaca --enable-libcdio --enable-libebur128 --enable-libflite --enable-libfontconfig --enable-libfreetype --enable-libfribidi --enable-libgme --enable-libgsm --enable-libmp3lame --enable-libopenjpeg --enable-libopenmpt --enable-libopus --enable-libpulse --enable-librubberband --enable-libshine --enable-libsnappy --enable-libsoxr --enable-libspeex --enable-libssh --enable-libtheora --enable-libtwolame --enable-libvorbis --enable-libvpx --enable-libwavpack --enable-libwebp --enable-libx265 --enable-libxvid --enable-libzmq --enable-libzvbi --enable-omx-rpi --enable-mmal --enable-openal --enable-opengl --enable-sdl2 --enable-libdc1394 --enable-libiec61883 --enable-chromaprint --enable-frei0r --enable-libopencv --enable-libx264 --enable-shared\n  libavutil      55. 34.101 / 55. 34.101\n  libavcodec     57. 64.101 / 57. 64.101\n  libavformat    57. 56.101 / 57. 56.101\n  libavdevice    57.  1.100 / 57.  1.100\n  libavfilter     6. 65.100 /  6. 65.100\n  libavresample   3.  1.  0 /  3.  1.  0\n  libswscale      4.  2.100 /  4.  2.100\n  libswresample   2.  3.100 /  2.  3.100\n  libpostproc    54.  1.100 / 54.  1.100\nInput #0, mov,mp4,m4a,3gp,3g2,mj2, from '/home/pi/BringingUpBaby(1938).mp4':\n  Metadata:\n    major_brand     : isom\n    minor_version   : 512\n    compatible_brands: isomiso2avc1mp41\n    title           : Bringing Up Baby ( 1938) - https://archive.org/details/BringingUpBaby\n    encoder         : Lavf57.21.101\n  Duration: 01:37:54.00, start: 0.000000, bitrate: 830 kb/s\n    Stream #0:0(und): Video: h264 (Constrained Baseline) (avc1 / 0x31637661), yuv420p, 640x480 [SAR 123:124 DAR 41:31], 697 kb/s, 25 fps, 25 tbr, 12800 tbn, 50 tbc (default)\n    Metadata:\n      handler_name    : VideoHandler\n    Stream #0:1(und): Audio: aac (LC) (mp4a / 0x6134706D), 44100 Hz, stereo, fltp, 128 kb/s (default)\n    Metadata:\n      handler_name    : SoundHandler\n"
2018-11-12 23:43:25,152 - avconv_controller.py - DEBUG - duration 01:37:54.00, 1.0, 37.0, 54.0
2018-11-12 23:43:25,185 - librarian.py - WARNING - no title found
2018-11-12 23:43:25,187 - librarian.py - WARNING - no name found
2018-11-12 23:43:25,188 - librarian.py - WARNING - no description found
2018-11-12 23:43:25,190 - librarian.py - INFO - generating thumbnails
2018-11-12 23:44:06,202 - video_player_pi2.py - INFO - hello
2018-11-12 23:44:07,649 - avconv_controller.py - INFO - importing avconv/ffmpeg controller
2018-11-12 23:44:08,953 - video_player_pi2.py - DEBUG - loading from config.file.txt
2018-11-12 23:44:08,955 - librarian.py - INFO - checking tests/m1
2018-11-12 23:44:08,959 - librarian.py - INFO - checking for mp4 in tests/m1
2018-11-12 23:44:11,287 - avconv_controller.py - DEBUG - results b"ffprobe version 3.2.10-1~deb9u1+rpt1 Copyright (c) 2007-2018 the FFmpeg developers\n  built with gcc 6.3.0 (Raspbian 6.3.0-18+rpi1) 20170516\n  configuration: --prefix=/usr --extra-version='1~deb9u1+rpt1' --toolchain=hardened --libdir=/usr/lib/arm-linux-gnueabihf --incdir=/usr/include/arm-linux-gnueabihf --enable-gpl --disable-stripping --enable-avresample --enable-avisynth --enable-gnutls --enable-ladspa --enable-libass --enable-libbluray --enable-libbs2b --enable-libcaca --enable-libcdio --enable-libebur128 --enable-libflite --enable-libfontconfig --enable-libfreetype --enable-libfribidi --enable-libgme --enable-libgsm --enable-libmp3lame --enable-libopenjpeg --enable-libopenmpt --enable-libopus --enable-libpulse --enable-librubberband --enable-libshine --enable-libsnappy --enable-libsoxr --enable-libspeex --enable-libssh --enable-libtheora --enable-libtwolame --enable-libvorbis --enable-libvpx --enable-libwavpack --enable-libwebp --enable-libx265 --enable-libxvid --enable-libzmq --enable-libzvbi --enable-omx-rpi --enable-mmal --enable-openal --enable-opengl --enable-sdl2 --enable-libdc1394 --enable-libiec61883 --enable-chromaprint --enable-frei0r --enable-libopencv --enable-libx264 --enable-shared\n  libavutil      55. 34.101 / 55. 34.101\n  libavcodec     57. 64.101 / 57. 64.101\n  libavformat    57. 56.101 / 57. 56.101\n  libavdevice    57.  1.100 / 57.  1.100\n  libavfilter     6. 65.100 /  6. 65.100\n  libavresample   3.  1.  0 /  3.  1.  0\n  libswscale      4.  2.100 /  4.  2.100\n  libswresample   2.  3.100 /  2.  3.100\n  libpostproc    54.  1.100 / 54.  1.100\n[mov,mp4,m4a,3gp,3g2,mj2 @ 0xd76e50] Format mov,mp4,m4a,3gp,3g2,mj2 detected only with low score of 1, misdetection possible!\n[mov,mp4,m4a,3gp,3g2,mj2 @ 0xd76e50] moov atom not found\ntests/m1/hello.mp4: Invalid data found when processing input\n"
2018-11-12 23:44:11,375 - avconv_controller.py - ERROR - duration 'tests/m1/hello.mp4': 'NoneType' object has no attribute 'group'
2018-11-12 23:44:11,439 - librarian.py - INFO - title card <Surface(182x268x24 SW)>
2018-11-12 23:44:11,443 - librarian.py - DEBUG - name read, Hello, My Name Is Doris (2015) for tests/m1/hello.mp4
2018-11-12 23:44:11,452 - librarian.py - DEBUG - description read, A self-help seminar inspires a sixty-something woman to romantically pursue her younger co-worker. for tests/m1/hello.mp4
2018-11-12 23:44:11,456 - librarian.py - INFO - generating thumbnails
2018-11-12 23:44:11,458 - librarian.py - INFO - ran thumbnail conversion
2018-11-12 23:44:11,460 - librarian.py - INFO - checking for avi in tests/m1
2018-11-12 23:44:12,052 - avconv_controller.py - DEBUG - results b"ffprobe version 3.2.10-1~deb9u1+rpt1 Copyright (c) 2007-2018 the FFmpeg developers\n  built with gcc 6.3.0 (Raspbian 6.3.0-18+rpi1) 20170516\n  configuration: --prefix=/usr --extra-version='1~deb9u1+rpt1' --toolchain=hardened --libdir=/usr/lib/arm-linux-gnueabihf --incdir=/usr/include/arm-linux-gnueabihf --enable-gpl --disable-stripping --enable-avresample --enable-avisynth --enable-gnutls --enable-ladspa --enable-libass --enable-libbluray --enable-libbs2b --enable-libcaca --enable-libcdio --enable-libebur128 --enable-libflite --enable-libfontconfig --enable-libfreetype --enable-libfribidi --enable-libgme --enable-libgsm --enable-libmp3lame --enable-libopenjpeg --enable-libopenmpt --enable-libopus --enable-libpulse --enable-librubberband --enable-libshine --enable-libsnappy --enable-libsoxr --enable-libspeex --enable-libssh --enable-libtheora --enable-libtwolame --enable-libvorbis --enable-libvpx --enable-libwavpack --enable-libwebp --enable-libx265 --enable-libxvid --enable-libzmq --enable-libzvbi --enable-omx-rpi --enable-mmal --enable-openal --enable-opengl --enable-sdl2 --enable-libdc1394 --enable-libiec61883 --enable-chromaprint --enable-frei0r --enable-libopencv --enable-libx264 --enable-shared\n  libavutil      55. 34.101 / 55. 34.101\n  libavcodec     57. 64.101 / 57. 64.101\n  libavformat    57. 56.101 / 57. 56.101\n  libavdevice    57.  1.100 / 57.  1.100\n  libavfilter     6. 65.100 /  6. 65.100\n  libavresample   3.  1.  0 /  3.  1.  0\n  libswscale      4.  2.100 /  4.  2.100\n  libswresample   2.  3.100 /  2.  3.100\n  libpostproc    54.  1.100 / 54.  1.100\n[avi @ 0x21aae50] Format avi detected only with low score of 1, misdetection possible!\ntests/m1/the_taking_of_pelham_one_two_three.avi: Invalid data found when processing input\n"
2018-11-12 23:44:12,053 - avconv_controller.py - ERROR - duration 'tests/m1/the_taking_of_pelham_one_two_three.avi': 'NoneType' object has no attribute 'group'
2018-11-12 23:44:12,062 - librarian.py - INFO - title card <Surface(182x268x24 SW)>
2018-11-12 23:44:12,064 - librarian.py - DEBUG - name read, The Taking of Pelham One Two Three (1974) for tests/m1/the_taking_of_pelham_one_two_three.avi
2018-11-12 23:44:12,066 - librarian.py - DEBUG - description read, In New York, armed men hijack a subway car and demand a ransom for the passengers. Even if it's paid, how could they get away? for tests/m1/the_taking_of_pelham_one_two_three.avi
2018-11-12 23:44:12,067 - librarian.py - INFO - generating thumbnails
2018-11-12 23:44:12,068 - librarian.py - INFO - ran thumbnail conversion
2018-11-12 23:44:12,452 - avconv_controller.py - DEBUG - results b"ffprobe version 3.2.10-1~deb9u1+rpt1 Copyright (c) 2007-2018 the FFmpeg developers\n  built with gcc 6.3.0 (Raspbian 6.3.0-18+rpi1) 20170516\n  configuration: --prefix=/usr --extra-version='1~deb9u1+rpt1' --toolchain=hardened --libdir=/usr/lib/arm-linux-gnueabihf --incdir=/usr/include/arm-linux-gnueabihf --enable-gpl --disable-stripping --enable-avresample --enable-avisynth --enable-gnutls --enable-ladspa --enable-libass --enable-libbluray --enable-libbs2b --enable-libcaca --enable-libcdio --enable-libebur128 --enable-libflite --enable-libfontconfig --enable-libfreetype --enable-libfribidi --enable-libgme --enable-libgsm --enable-libmp3lame --enable-libopenjpeg --enable-libopenmpt --enable-libopus --enable-libpulse --enable-librubberband --enable-libshine --enable-libsnappy --enable-libsoxr --enable-libspeex --enable-libssh --enable-libtheora --enable-libtwolame --enable-libvorbis --enable-libvpx --enable-libwavpack --enable-libwebp --enable-libx265 --enable-libxvid --enable-libzmq --enable-libzvbi --enable-omx-rpi --enable-mmal --enable-openal --enable-opengl --enable-sdl2 --enable-libdc1394 --enable-libiec61883 --enable-chromaprint --enable-frei0r --enable-libopencv --enable-libx264 --enable-shared\n  libavutil      55. 34.101 / 55. 34.101\n  libavcodec     57. 64.101 / 57. 64.101\n  libavformat    57. 56.101 / 57. 56.101\n  libavdevice    57.  1.100 / 57.  1.100\n  libavfilter     6. 65.100 /  6. 65.100\n  libavresample   3.  1.  0 /  3.  1.  0\n  libswscale      4.  2.100 /  4.  2.100\n  libswresample   2.  3.100 /  2.  3.100\n  libpostproc    54.  1.100 / 54.  1.100\n[avi @ 0xa6fe50] Format avi detected only with low score of 1, misdetection possible!\ntests/m1/hello2.avi: Invalid data found when processing input\n"
2018-11-12 23:44:12,453 - avconv_controller.py - ERROR - duration 'tests/m1/hello2.avi': 'NoneType' object has no attribute 'group'
2018-11-12 23:44:12,457 - librarian.py - WARNING - no title found
2018-11-12 23:44:12,458 - librarian.py - WARNING - no name found
2018-11-12 23:44:12,459 - librarian.py - WARNING - no description found
2018-11-12 23:44:12,460 - librarian.py - INFO - generating thumbnails
2018-11-12 23:44:12,461 - librarian.py - INFO - ran thumbnail conversion
2018-11-12 23:44:12,464 - librarian.py - INFO - calling imdb for hello 2 avi
2018-11-12 23:44:24,748 - librarian.py - ERROR - imdb image/title/descr results list index out of range
2018-11-12 23:44:24,758 - librarian.py - INFO - checking /home/pi
2018-11-12 23:44:24,759 - librarian.py - INFO - checking for mp4 in /home/pi
2018-11-12 23:44:27,230 - avconv_controller.py - DEBUG - results b"ffprobe version 3.2.10-1~deb9u1+rpt1 Copyright (c) 2007-2018 the FFmpeg developers\n  built with gcc 6.3.0 (Raspbian 6.3.0-18+rpi1) 20170516\n  configuration: --prefix=/usr --extra-version='1~deb9u1+rpt1' --toolchain=hardened --libdir=/usr/lib/arm-linux-gnueabihf --incdir=/usr/include/arm-linux-gnueabihf --enable-gpl --disable-stripping --enable-avresample --enable-avisynth --enable-gnutls --enable-ladspa --enable-libass --enable-libbluray --enable-libbs2b --enable-libcaca --enable-libcdio --enable-libebur128 --enable-libflite --enable-libfontconfig --enable-libfreetype --enable-libfribidi --enable-libgme --enable-libgsm --enable-libmp3lame --enable-libopenjpeg --enable-libopenmpt --enable-libopus --enable-libpulse --enable-librubberband --enable-libshine --enable-libsnappy --enable-libsoxr --enable-libspeex --enable-libssh --enable-libtheora --enable-libtwolame --enable-libvorbis --enable-libvpx --enable-libwavpack --enable-libwebp --enable-libx265 --enable-libxvid --enable-libzmq --enable-libzvbi --enable-omx-rpi --enable-mmal --enable-openal --enable-opengl --enable-sdl2 --enable-libdc1394 --enable-libiec61883 --enable-chromaprint --enable-frei0r --enable-libopencv --enable-libx264 --enable-shared\n  libavutil      55. 34.101 / 55. 34.101\n  libavcodec     57. 64.101 / 57. 64.101\n  libavformat    57. 56.101 / 57. 56.101\n  libavdevice    57.  1.100 / 57.  1.100\n  libavfilter     6. 65.100 /  6. 65.100\n  libavresample   3.  1.  0 /  3.  1.  0\n  libswscale      4.  2.100 /  4.  2.100\n  libswresample   2.  3.100 /  2.  3.100\n  libpostproc    54.  1.100 / 54.  1.100\nInput #0, mov,mp4,m4a,3gp,3g2,mj2, from '/home/pi/BringingUpBaby(1938).mp4':\n  Metadata:\n    major_brand     : isom\n    minor_version   : 512\n    compatible_brands: isomiso2avc1mp41\n    title           : Bringing Up Baby ( 1938) - https://archive.org/details/BringingUpBaby\n    encoder         : Lavf57.21.101\n  Duration: 01:37:54.00, start: 0.000000, bitrate: 830 kb/s\n    Stream #0:0(und): Video: h264 (Constrained Baseline) (avc1 / 0x31637661), yuv420p, 640x480 [SAR 123:124 DAR 41:31], 697 kb/s, 25 fps, 25 tbr, 12800 tbn, 50 tbc (default)\n    Metadata:\n      handler_name    : VideoHandler\n    Stream #0:1(und): Audio: aac (LC) (mp4a / 0x6134706D), 44100 Hz, stereo, fltp, 128 kb/s (default)\n    Metadata:\n      handler_name    : SoundHandler\n"
2018-11-12 23:44:27,307 - avconv_controller.py - DEBUG - duration 01:37:54.00, 1.0, 37.0, 54.0
2018-11-12 23:44:27,363 - librarian.py - WARNING - no title found
2018-11-12 23:44:27,365 - librarian.py - WARNING - no name found
2018-11-12 23:44:27,366 - librarian.py - WARNING - no description found
2018-11-12 23:44:27,368 - librarian.py - INFO - generating thumbnails
2018-11-12 23:44:27,373 - avconv_controller.py - ERROR - thumbnail '/home/pi/BringingUpBaby(1938).mp4': 'position'
2018-11-12 23:44:27,374 - avconv_controller.py - ERROR - thumbnail '/home/pi/BringingUpBaby(1938).mp4': 'position'
2018-11-12 23:44:27,375 - avconv_controller.py - ERROR - thumbnail '/home/pi/BringingUpBaby(1938).mp4': 'position'
2018-11-12 23:44:27,377 - avconv_controller.py - ERROR - thumbnail '/home/pi/BringingUpBaby(1938).mp4': 'position'
2018-11-12 23:44:27,378 - avconv_controller.py - ERROR - thumbnail '/home/pi/BringingUpBaby(1938).mp4': 'position'
2018-11-12 23:44:27,379 - avconv_controller.py - ERROR - thumbnail '/home/pi/BringingUpBaby(1938).mp4': 'position'
2018-11-12 23:44:27,380 - avconv_controller.py - ERROR - thumbnail '/home/pi/BringingUpBaby(1938).mp4': 'position'
2018-11-12 23:44:27,382 - avconv_controller.py - ERROR - thumbnail '/home/pi/BringingUpBaby(1938).mp4': 'position'
2018-11-12 23:44:27,383 - avconv_controller.py - ERROR - thumbnail '/home/pi/BringingUpBaby(1938).mp4': 'position'
2018-11-12 23:44:27,384 - avconv_controller.py - ERROR - thumbnail '/home/pi/BringingUpBaby(1938).mp4': 'position'
2018-11-12 23:44:27,385 - avconv_controller.py - ERROR - thumbnail '/home/pi/BringingUpBaby(1938).mp4': 'position'
2018-11-12 23:44:27,386 - avconv_controller.py - ERROR - thumbnail '/home/pi/BringingUpBaby(1938).mp4': 'position'
2018-11-12 23:44:27,388 - avconv_controller.py - ERROR - thumbnail '/home/pi/BringingUpBaby(1938).mp4': 'position'
2018-11-12 23:44:27,389 - avconv_controller.py - ERROR - thumbnail '/home/pi/BringingUpBaby(1938).mp4': 'position'
2018-11-12 23:44:27,390 - avconv_controller.py - ERROR - thumbnail '/home/pi/BringingUpBaby(1938).mp4': 'position'
2018-11-12 23:44:27,391 - avconv_controller.py - ERROR - thumbnail '/home/pi/BringingUpBaby(1938).mp4': 'position'
2018-11-12 23:44:27,392 - avconv_controller.py - ERROR - thumbnail '/home/pi/BringingUpBaby(1938).mp4': 'position'
2018-11-12 23:44:27,393 - avconv_controller.py - ERROR - thumbnail '/home/pi/BringingUpBaby(1938).mp4': 'position'
2018-11-12 23:44:27,395 - avconv_controller.py - ERROR - thumbnail '/home/pi/BringingUpBaby(1938).mp4': 'position'
2018-11-12 23:44:27,396 - avconv_controller.py - ERROR - thumbnail '/home/pi/BringingUpBaby(1938).mp4': 'position'
2018-11-12 23:44:27,397 - avconv_controller.py - ERROR - thumbnail '/home/pi/BringingUpBaby(1938).mp4': 'position'
2018-11-12 23:44:27,398 - avconv_controller.py - ERROR - thumbnail '/home/pi/BringingUpBaby(1938).mp4': 'position'
2018-11-12 23:44:27,400 - avconv_controller.py - ERROR - thumbnail '/home/pi/BringingUpBaby(1938).mp4': 'position'
2018-11-12 23:44:27,401 - avconv_controller.py - ERROR - thumbnail '/home/pi/BringingUpBaby(1938).mp4': 'position'
2018-11-12 23:44:27,402 - librarian.py - INFO - ran thumbnail conversion
2018-11-12 23:44:27,404 - librarian.py - INFO - calling imdb for Bringing Up Baby( 1938) mp 4
2018-11-12 23:44:34,601 - librarian.py - ERROR - imdb image/title/descr results list index out of range
2018-11-12 23:44:36,814 - avconv_controller.py - DEBUG - results b"ffprobe version 3.2.10-1~deb9u1+rpt1 Copyright (c) 2007-2018 the FFmpeg developers\n  built with gcc 6.3.0 (Raspbian 6.3.0-18+rpi1) 20170516\n  configuration: --prefix=/usr --extra-version='1~deb9u1+rpt1' --toolchain=hardened --libdir=/usr/lib/arm-linux-gnueabihf --incdir=/usr/include/arm-linux-gnueabihf --enable-gpl --disable-stripping --enable-avresample --enable-avisynth --enable-gnutls --enable-ladspa --enable-libass --enable-libbluray --enable-libbs2b --enable-libcaca --enable-libcdio --enable-libebur128 --enable-libflite --enable-libfontconfig --enable-libfreetype --enable-libfribidi --enable-libgme --enable-libgsm --enable-libmp3lame --enable-libopenjpeg --enable-libopenmpt --enable-libopus --enable-libpulse --enable-librubberband --enable-libshine --enable-libsnappy --enable-libsoxr --enable-libspeex --enable-libssh --enable-libtheora --enable-libtwolame --enable-libvorbis --enable-libvpx --enable-libwavpack --enable-libwebp --enable-libx265 --enable-libxvid --enable-libzmq --enable-libzvbi --enable-omx-rpi --enable-mmal --enable-openal --enable-opengl --enable-sdl2 --enable-libdc1394 --enable-libiec61883 --enable-chromaprint --enable-frei0r --enable-libopencv --enable-libx264 --enable-shared\n  libavutil      55. 34.101 / 55. 34.101\n  libavcodec     57. 64.101 / 57. 64.101\n  libavformat    57. 56.101 / 57. 56.101\n  libavdevice    57.  1.100 / 57.  1.100\n  libavfilter     6. 65.100 /  6. 65.100\n  libavresample   3.  1.  0 /  3.  1.  0\n  libswscale      4.  2.100 /  4.  2.100\n  libswresample   2.  3.100 /  2.  3.100\n  libpostproc    54.  1.100 / 54.  1.100\nInput #0, mov,mp4,m4a,3gp,3g2,mj2, from '/home/pi/Timeshift_Series_13_-_5._The_Ladybird_Books_Story_The_Bugs_That_Got_Britain_Reading_b03mp53s_original.mp4':\n  Metadata:\n    major_brand     : isom\n    minor_version   : 512\n    compatible_brands: isomiso2avc1mp41\n    encoder         : Lavf57.56.101\n  Duration: 00:58:35.00, start: -0.018667, bitrate: 755 kb/s\n    Stream #0:0(und): Video: h264 (Main) (avc1 / 0x31637661), yuv420p(tv, bt709), 512x288 [SAR 1:1 DAR 16:9], 433 kb/s, 25 fps, 25 tbr, 90k tbn, 50 tbc (default)\n    Metadata:\n      handler_name    : VideoHandler\n    Stream #0:1(eng): Audio: aac (LC) (mp4a / 0x6134706D), 48000 Hz, stereo, fltp, 317 kb/s (default)\n    Metadata:\n      handler_name    : SoundHandler\n"
2018-11-12 23:44:36,861 - avconv_controller.py - DEBUG - duration 00:58:35.00, 0.0, 58.0, 35.0
2018-11-12 23:44:36,877 - librarian.py - WARNING - no title found
2018-11-12 23:44:36,879 - librarian.py - WARNING - no name found
2018-11-12 23:44:36,880 - librarian.py - WARNING - no description found
2018-11-12 23:44:36,881 - librarian.py - INFO - generating thumbnails
2018-11-12 23:44:36,883 - avconv_controller.py - ERROR - thumbnail '/home/pi/Timeshift_Series_13_-_5._The_Ladybird_Books_Story_The_Bugs_That_Got_Britain_Reading_b03mp53s_original.mp4': 'position'
2018-11-12 23:44:36,884 - avconv_controller.py - ERROR - thumbnail '/home/pi/Timeshift_Series_13_-_5._The_Ladybird_Books_Story_The_Bugs_That_Got_Britain_Reading_b03mp53s_original.mp4': 'position'
2018-11-12 23:44:36,885 - avconv_controller.py - ERROR - thumbnail '/home/pi/Timeshift_Series_13_-_5._The_Ladybird_Books_Story_The_Bugs_That_Got_Britain_Reading_b03mp53s_original.mp4': 'position'
2018-11-12 23:44:36,887 - avconv_controller.py - ERROR - thumbnail '/home/pi/Timeshift_Series_13_-_5._The_Ladybird_Books_Story_The_Bugs_That_Got_Britain_Reading_b03mp53s_original.mp4': 'position'
2018-11-12 23:44:36,888 - avconv_controller.py - ERROR - thumbnail '/home/pi/Timeshift_Series_13_-_5._The_Ladybird_Books_Story_The_Bugs_That_Got_Britain_Reading_b03mp53s_original.mp4': 'position'
2018-11-12 23:44:36,889 - avconv_controller.py - ERROR - thumbnail '/home/pi/Timeshift_Series_13_-_5._The_Ladybird_Books_Story_The_Bugs_That_Got_Britain_Reading_b03mp53s_original.mp4': 'position'
2018-11-12 23:44:36,891 - avconv_controller.py - ERROR - thumbnail '/home/pi/Timeshift_Series_13_-_5._The_Ladybird_Books_Story_The_Bugs_That_Got_Britain_Reading_b03mp53s_original.mp4': 'position'
2018-11-12 23:44:36,892 - avconv_controller.py - ERROR - thumbnail '/home/pi/Timeshift_Series_13_-_5._The_Ladybird_Books_Story_The_Bugs_That_Got_Britain_Reading_b03mp53s_original.mp4': 'position'
2018-11-12 23:44:36,893 - avconv_controller.py - ERROR - thumbnail '/home/pi/Timeshift_Series_13_-_5._The_Ladybird_Books_Story_The_Bugs_That_Got_Britain_Reading_b03mp53s_original.mp4': 'position'
2018-11-12 23:44:36,894 - avconv_controller.py - ERROR - thumbnail '/home/pi/Timeshift_Series_13_-_5._The_Ladybird_Books_Story_The_Bugs_That_Got_Britain_Reading_b03mp53s_original.mp4': 'position'
2018-11-12 23:44:36,895 - avconv_controller.py - ERROR - thumbnail '/home/pi/Timeshift_Series_13_-_5._The_Ladybird_Books_Story_The_Bugs_That_Got_Britain_Reading_b03mp53s_original.mp4': 'position'
2018-11-12 23:44:36,897 - avconv_controller.py - ERROR - thumbnail '/home/pi/Timeshift_Series_13_-_5._The_Ladybird_Books_Story_The_Bugs_That_Got_Britain_Reading_b03mp53s_original.mp4': 'position'
2018-11-12 23:44:36,898 - avconv_controller.py - ERROR - thumbnail '/home/pi/Timeshift_Series_13_-_5._The_Ladybird_Books_Story_The_Bugs_That_Got_Britain_Reading_b03mp53s_original.mp4': 'position'
2018-11-12 23:44:36,899 - avconv_controller.py - ERROR - thumbnail '/home/pi/Timeshift_Series_13_-_5._The_Ladybird_Books_Story_The_Bugs_That_Got_Britain_Reading_b03mp53s_original.mp4': 'position'
2018-11-12 23:44:36,900 - avconv_controller.py - ERROR - thumbnail '/home/pi/Timeshift_Series_13_-_5._The_Ladybird_Books_Story_The_Bugs_That_Got_Britain_Reading_b03mp53s_original.mp4': 'position'
2018-11-12 23:44:36,901 - librarian.py - INFO - ran thumbnail conversion
2018-11-12 23:44:36,904 - librarian.py - INFO - calling imdb for Timeshift Series 13 - 5  The Ladybird Books Story The Bugs That Got Britain Reading b 03mp 53s original mp 4
2018-11-12 23:44:39,121 - librarian.py - ERROR - imdb image/title/descr results list index out of range
2018-11-12 23:44:41,041 - avconv_controller.py - DEBUG - results b"ffprobe version 3.2.10-1~deb9u1+rpt1 Copyright (c) 2007-2018 the FFmpeg developers\n  built with gcc 6.3.0 (Raspbian 6.3.0-18+rpi1) 20170516\n  configuration: --prefix=/usr --extra-version='1~deb9u1+rpt1' --toolchain=hardened --libdir=/usr/lib/arm-linux-gnueabihf --incdir=/usr/include/arm-linux-gnueabihf --enable-gpl --disable-stripping --enable-avresample --enable-avisynth --enable-gnutls --enable-ladspa --enable-libass --enable-libbluray --enable-libbs2b --enable-libcaca --enable-libcdio --enable-libebur128 --enable-libflite --enable-libfontconfig --enable-libfreetype --enable-libfribidi --enable-libgme --enable-libgsm --enable-libmp3lame --enable-libopenjpeg --enable-libopenmpt --enable-libopus --enable-libpulse --enable-librubberband --enable-libshine --enable-libsnappy --enable-libsoxr --enable-libspeex --enable-libssh --enable-libtheora --enable-libtwolame --enable-libvorbis --enable-libvpx --enable-libwavpack --enable-libwebp --enable-libx265 --enable-libxvid --enable-libzmq --enable-libzvbi --enable-omx-rpi --enable-mmal --enable-openal --enable-opengl --enable-sdl2 --enable-libdc1394 --enable-libiec61883 --enable-chromaprint --enable-frei0r --enable-libopencv --enable-libx264 --enable-shared\n  libavutil      55. 34.101 / 55. 34.101\n  libavcodec     57. 64.101 / 57. 64.101\n  libavformat    57. 56.101 / 57. 56.101\n  libavdevice    57.  1.100 / 57.  1.100\n  libavfilter     6. 65.100 /  6. 65.100\n  libavresample   3.  1.  0 /  3.  1.  0\n  libswscale      4.  2.100 /  4.  2.100\n  libswresample   2.  3.100 /  2.  3.100\n  libpostproc    54.  1.100 / 54.  1.100\nInput #0, mov,mp4,m4a,3gp,3g2,mj2, from '/home/pi/Cinderella.the.Cat.2017.720p.BluRay.x264-[YTS.ME].mp4':\n  Metadata:\n    major_brand     : isom\n    minor_version   : 512\n    compatible_brands: isomiso2avc1mp41\n    encoder         : Lavf57.71.100\n  Duration: 01:26:56.03, start: 0.000000, bitrate: 1136 kb/s\n    Stream #0:0(und): Video: h264 (High) (avc1 / 0x31637661), yuv420p, 1280x676 [SAR 1:1 DAR 320:169], 1001 kb/s, 24 fps, 24 tbr, 12288 tbn, 48 tbc (default)\n    Metadata:\n      handler_name    : VideoHandler\n    Stream #0:1(und): Audio: aac (LC) (mp4a / 0x6134706D), 48000 Hz, stereo, fltp, 128 kb/s (default)\n    Metadata:\n      handler_name    : SoundHandler\n"
2018-11-12 23:44:41,088 - avconv_controller.py - DEBUG - duration 01:26:56.03, 1.0, 26.0, 56.03
2018-11-12 23:44:41,099 - librarian.py - WARNING - no title found
2018-11-12 23:44:41,100 - librarian.py - WARNING - no name found
2018-11-12 23:44:41,102 - librarian.py - WARNING - no description found
2018-11-12 23:44:41,103 - librarian.py - INFO - generating thumbnails
2018-11-12 23:44:41,105 - avconv_controller.py - ERROR - thumbnail '/home/pi/Cinderella.the.Cat.2017.720p.BluRay.x264-[YTS.ME].mp4': 'position'
2018-11-12 23:44:41,106 - avconv_controller.py - ERROR - thumbnail '/home/pi/Cinderella.the.Cat.2017.720p.BluRay.x264-[YTS.ME].mp4': 'position'
2018-11-12 23:44:41,107 - avconv_controller.py - ERROR - thumbnail '/home/pi/Cinderella.the.Cat.2017.720p.BluRay.x264-[YTS.ME].mp4': 'position'
2018-11-12 23:44:41,108 - avconv_controller.py - ERROR - thumbnail '/home/pi/Cinderella.the.Cat.2017.720p.BluRay.x264-[YTS.ME].mp4': 'position'
2018-11-12 23:44:41,110 - avconv_controller.py - ERROR - thumbnail '/home/pi/Cinderella.the.Cat.2017.720p.BluRay.x264-[YTS.ME].mp4': 'position'
2018-11-12 23:44:41,111 - avconv_controller.py - ERROR - thumbnail '/home/pi/Cinderella.the.Cat.2017.720p.BluRay.x264-[YTS.ME].mp4': 'position'
2018-11-12 23:44:41,112 - avconv_controller.py - ERROR - thumbnail '/home/pi/Cinderella.the.Cat.2017.720p.BluRay.x264-[YTS.ME].mp4': 'position'
2018-11-12 23:44:41,113 - avconv_controller.py - ERROR - thumbnail '/home/pi/Cinderella.the.Cat.2017.720p.BluRay.x264-[YTS.ME].mp4': 'position'
2018-11-12 23:44:41,114 - avconv_controller.py - ERROR - thumbnail '/home/pi/Cinderella.the.Cat.2017.720p.BluRay.x264-[YTS.ME].mp4': 'position'
2018-11-12 23:44:41,116 - avconv_controller.py - ERROR - thumbnail '/home/pi/Cinderella.the.Cat.2017.720p.BluRay.x264-[YTS.ME].mp4': 'position'
2018-11-12 23:44:41,117 - avconv_controller.py - ERROR - thumbnail '/home/pi/Cinderella.the.Cat.2017.720p.BluRay.x264-[YTS.ME].mp4': 'position'
2018-11-12 23:44:41,118 - avconv_controller.py - ERROR - thumbnail '/home/pi/Cinderella.the.Cat.2017.720p.BluRay.x264-[YTS.ME].mp4': 'position'
2018-11-12 23:44:41,120 - avconv_controller.py - ERROR - thumbnail '/home/pi/Cinderella.the.Cat.2017.720p.BluRay.x264-[YTS.ME].mp4': 'position'
2018-11-12 23:44:41,121 - avconv_controller.py - ERROR - thumbnail '/home/pi/Cinderella.the.Cat.2017.720p.BluRay.x264-[YTS.ME].mp4': 'position'
2018-11-12 23:44:41,122 - avconv_controller.py - ERROR - thumbnail '/home/pi/Cinderella.the.Cat.2017.720p.BluRay.x264-[YTS.ME].mp4': 'position'
2018-11-12 23:44:41,123 - avconv_controller.py - ERROR - thumbnail '/home/pi/Cinderella.the.Cat.2017.720p.BluRay.x264-[YTS.ME].mp4': 'position'
2018-11-12 23:44:41,124 - avconv_controller.py - ERROR - thumbnail '/home/pi/Cinderella.the.Cat.2017.720p.BluRay.x264-[YTS.ME].mp4': 'position'
2018-11-12 23:44:41,125 - avconv_controller.py - ERROR - thumbnail '/home/pi/Cinderella.the.Cat.2017.720p.BluRay.x264-[YTS.ME].mp4': 'position'
2018-11-12 23:44:41,127 - avconv_controller.py - ERROR - thumbnail '/home/pi/Cinderella.the.Cat.2017.720p.BluRay.x264-[YTS.ME].mp4': 'position'
2018-11-12 23:44:41,128 - avconv_controller.py - ERROR - thumbnail '/home/pi/Cinderella.the.Cat.2017.720p.BluRay.x264-[YTS.ME].mp4': 'position'
2018-11-12 23:44:41,129 - avconv_controller.py - ERROR - thumbnail '/home/pi/Cinderella.the.Cat.2017.720p.BluRay.x264-[YTS.ME].mp4': 'position'
2018-11-12 23:44:41,130 - librarian.py - INFO - ran thumbnail conversion
2018-11-12 23:44:41,133 - librarian.py - INFO - calling imdb for Cinderella the Cat 2017 720p Blu Ray x 264-[YTS ME] mp 4
2018-11-12 23:48:45,596 - video_player_pi2.py - INFO - hello
2018-11-12 23:48:47,142 - avconv_controller.py - INFO - importing avconv/ffmpeg controller
2018-11-12 23:48:48,555 - video_player_pi2.py - DEBUG - loading from config.file.txt
2018-11-12 23:48:48,558 - librarian.py - INFO - checking tests/m1
2018-11-12 23:48:48,559 - librarian.py - INFO - checking for mp4 in tests/m1
2018-11-12 23:48:50,915 - avconv_controller.py - DEBUG - results b"ffprobe version 3.2.10-1~deb9u1+rpt1 Copyright (c) 2007-2018 the FFmpeg developers\n  built with gcc 6.3.0 (Raspbian 6.3.0-18+rpi1) 20170516\n  configuration: --prefix=/usr --extra-version='1~deb9u1+rpt1' --toolchain=hardened --libdir=/usr/lib/arm-linux-gnueabihf --incdir=/usr/include/arm-linux-gnueabihf --enable-gpl --disable-stripping --enable-avresample --enable-avisynth --enable-gnutls --enable-ladspa --enable-libass --enable-libbluray --enable-libbs2b --enable-libcaca --enable-libcdio --enable-libebur128 --enable-libflite --enable-libfontconfig --enable-libfreetype --enable-libfribidi --enable-libgme --enable-libgsm --enable-libmp3lame --enable-libopenjpeg --enable-libopenmpt --enable-libopus --enable-libpulse --enable-librubberband --enable-libshine --enable-libsnappy --enable-libsoxr --enable-libspeex --enable-libssh --enable-libtheora --enable-libtwolame --enable-libvorbis --enable-libvpx --enable-libwavpack --enable-libwebp --enable-libx265 --enable-libxvid --enable-libzmq --enable-libzvbi --enable-omx-rpi --enable-mmal --enable-openal --enable-opengl --enable-sdl2 --enable-libdc1394 --enable-libiec61883 --enable-chromaprint --enable-frei0r --enable-libopencv --enable-libx264 --enable-shared\n  libavutil      55. 34.101 / 55. 34.101\n  libavcodec     57. 64.101 / 57. 64.101\n  libavformat    57. 56.101 / 57. 56.101\n  libavdevice    57.  1.100 / 57.  1.100\n  libavfilter     6. 65.100 /  6. 65.100\n  libavresample   3.  1.  0 /  3.  1.  0\n  libswscale      4.  2.100 /  4.  2.100\n  libswresample   2.  3.100 /  2.  3.100\n  libpostproc    54.  1.100 / 54.  1.100\n[mov,mp4,m4a,3gp,3g2,mj2 @ 0x637e50] Format mov,mp4,m4a,3gp,3g2,mj2 detected only with low score of 1, misdetection possible!\n[mov,mp4,m4a,3gp,3g2,mj2 @ 0x637e50] moov atom not found\ntests/m1/hello.mp4: Invalid data found when processing input\n"
2018-11-12 23:48:50,960 - avconv_controller.py - ERROR - duration 'tests/m1/hello.mp4': 'NoneType' object has no attribute 'group'
2018-11-12 23:48:51,027 - librarian.py - INFO - title card <Surface(182x268x24 SW)>
2018-11-12 23:48:51,031 - librarian.py - DEBUG - name read, Hello, My Name Is Doris (2015) for tests/m1/hello.mp4
2018-11-12 23:48:51,043 - librarian.py - DEBUG - description read, A self-help seminar inspires a sixty-something woman to romantically pursue her younger co-worker. for tests/m1/hello.mp4
2018-11-12 23:48:51,047 - librarian.py - INFO - generating thumbnails
2018-11-12 23:48:51,048 - librarian.py - INFO - ran thumbnail conversion
2018-11-12 23:48:51,050 - librarian.py - INFO - checking for avi in tests/m1
